<svg
  xmlns="http://www.w3.org/2000/svg"
  width="520"
  height="150"
  viewBox="0 0 520 150"
  role="img"
  aria-label="Claudia's GitHub statistics"
>
  <style>
    .title {
      font: 600 18px -apple-system, BlinkMacSystemFont,
            "Segoe UI", Helvetica, Arial, sans-serif;
      fill: #8250df;
    }

    .label {
      font: 400 14px -apple-system, BlinkMacSystemFont,
            "Segoe UI", Helvetica, Arial, sans-serif;
      fill: #57606a;
    }

    .value {
      font: 600 14px -apple-system, BlinkMacSystemFont,
            "Segoe UI", Helvetica, Arial, sans-serif;
      fill: #24292f;
    }

    .icon {
      fill: #8250df;
    }

    .icon-stroke {
      fill: none;
      stroke: #8250df;
      stroke-width: 1.7;
      stroke-linecap: round;
      stroke-linejoin: round;
    }
  </style>

  <rect
    x="0.5"
    y="0.5"
    width="519"
    height="149"
    rx="7"
    fill="#ffffff"
    stroke="#d0d7de"
  />

  <text
    x="25"
    y="38"
    class="title"
  >
    Claudia's GitHub Stats
  </text>

  
    <g>
      
    <polygon
      points="33,65
              35.5,70.2
              41,71
              37,75
              38,81
              33,78
              28,81
              29,75
              25,71
              30.5,70.2"
      class="icon"
    />
    

      <text
        x="52"
        y="78"
        class="label"
      >
        Total Stars
      </text>

      <text
        x="190"
        y="78"
        class="value"
      >
        1396
      </text>
    </g>
    

  
    <g>
      
    <g class="icon-stroke">
      <line
        x1="280"
        y1="73"
        x2="285"
        y2="73"
      />
      <circle
        cx="288"
        cy="73"
        r="3"
      />
      <line
        x1="291"
        y1="73"
        x2="296"
        y2="73"
      />
    </g>
    

      <text
        x="307"
        y="78"
        class="label"
      >
        Total Commits
      </text>

      <text
        x="445"
        y="78"
        class="value"
      >
        135
      </text>
    </g>
    

  
    <g>
      
    <g class="icon-stroke">
      <circle
        cx="28"
        cy="108"
        r="2"
      />
      <circle
        cx="38"
        cy="108"
        r="2"
      />
      <circle
        cx="33"
        cy="119"
        r="2"
      />

      <path
        d="M 28 110
           V 112
           C 28 115,
             33 114,
             33 117"
      />

      <path
        d="M 38 110
           V 112
           C 38 115,
             33 114,
             33 117"
      />
    </g>
    

      <text
        x="52"
        y="118"
        class="label"
      >
        Total Forks
      </text>

      <text
        x="190"
        y="118"
        class="value"
      >
        108
      </text>
    </g>
    

  
    <g>
      
    <g class="icon-stroke">
      <circle
        cx="286"
        cy="110"
        r="3"
      />

      <path
        d="M 281 121
           C 281 116,
             291 116,
             291 121"
      />

      <circle
        cx="293"
        cy="111"
        r="2"
      />

      <path
        d="M 292 116
           C 296 116,
             297 118,
             297 121"
      />
    </g>
    

      <text
        x="307"
        y="118"
        class="label"
      >
        Followers
      </text>

      <text
        x="445"
        y="118"
        class="value"
      >
        68
      </text>
    </g>
    
</svg>
